<?xml version="1.0" encoding="iso-8859-1"?>
<!-- Uploaded to: SVG Repo, www.svgrepo.com, Generator: SVG Repo Mixer Tools -->
<svg fill="white" height="800px" width="800px" version="1.1" id="Layer_1" xmlns="http://www.w3.org/2000/svg" xmlns:xlink="http://www.w3.org/1999/xlink"
	 viewBox="0 0 455 455" xml:space="preserve">
<path style="fill-rule:evenodd;clip-rule:evenodd;" d="
	M352.271,348.95c-13.2,7.348-36.707,19.102-45.519,28.435
	c-8.794,9.265-22.515,8.794-28.888,5.314c-6.373-3.413-9.787-11.233-9.787-11.233s-17.605-4.389-36.203-3.868
	c-18.58,0.454-36.253,4.406-36.253,4.406s-4.86,12.678-20.565,10.695c-15.621-1.9-34.286-12.662-50.9-14.646
	c-16.68-1.967-33.764-5.381-30.351-16.613c3.414-11.233,6.372-16.159,3.414-24.954c-2.943-8.811-2.943-16.681,9.265-19.186
	c12.292-2.371,19.119-5.852,22.533-13.133c3.48-7.365,7.886-8.879,7.886-8.879s-4.405-10.24,1.9-21.473
	c6.44-11.3,12.814-38.691,21.608-51.959c8.811-13.2,22.078-28.956,23.978-33.294c1.9-4.271,2.438-16.159,1.446-32.773
	c-0.992-16.698-7.298-51.891,13.268-66.084c20.565-14.191,58.718-16.159,73.432,17.135c14.713,33.244,0.992,59.257,17.151,81.789
	c16.159,22.465,37.178,52.346,43.551,70.926c6.373,18.665-0.471,41.197-0.471,41.197s7.819,6.827,7.365,17.067
	c-0.521,10.325,6.306,15.706,14.646,19.119C363.117,330.353,365.555,341.585,352.271,348.95z
	M157.064,305.853c-3.548-5.515-12.157-15.301-16.815-12.543
	c-4.726,2.69-5.902,12.88-11.754,16.428c-5.852,3.548-21.087,3.548-22.263,8.592c-1.194,5.061,2.287,9.719,1.177,17.219
	c-1.244,7.416-5.918,15.235-2.757,18.783c3.077,3.48,26.988,4.658,36.388,8.609c9.4,3.934,30.082,12.863,37.497,10.577
	c0,0,8.29-5.129,9.786-12.157c1.581-7.029-3.481-14.848-8.996-20.75C173.88,334.759,160.545,311.234,157.064,305.853z
	M233.522,140.661c-0.857-1.648-1.379-3.75-1.379-5.852
	c0-5.767,3.616-10.509,7.954-10.509c4.456,0,8.004,4.741,8.004,10.509c0,4.406-2.102,8.223-5.128,9.719
	c1.446,0.606,2.758,1.194,4.019,1.716c4.994-3.027,8.408-9.332,8.408-16.614c0-10.257-6.777-18.597-15.184-18.597
	c-8.408,0-15.168,8.34-15.168,18.597c0,3.01,0.589,5.835,1.581,8.34C228.529,138.694,230.9,139.602,233.522,140.661z
	M196.681,157.863c-1.984,3.413,5.902,9.854,10.106,12.611
	c4.204,2.707,6.441,4.927,10.376,4.406c3.951-0.521,16.294-8.139,21.944-11.552c5.717-3.481,7.886-3.481,8.407-6.255
	c0.454-2.691-4.203-5.381-8.407-6.827c-4.204-1.513-15.571-6.44-19.708-7.163c-4.204-0.774-11.165,5.128-13.855,7.634
	C202.852,153.138,196.681,157.863,196.681,157.863z
	M197.656,148.413c1.648-1.177,3.229-2.623,4.927-4.271
	c-0.201,0.067-0.386,0.134-0.589,0.202c-3.548,0.588-7.028-3.296-7.953-8.676c-0.841-5.314,1.244-10.123,4.742-10.712
	c3.481-0.521,7.029,3.363,7.937,8.609c0.471,2.96,0.067,5.785-0.975,7.752c0.655-0.656,1.379-1.244,2.152-1.9
	c1.581-1.379,3.229-2.236,4.877-2.758c0.319-1.648,0.521-3.296,0.521-5.061c0-9.719-5.398-17.605-12.023-17.605
	c-6.642,0-11.956,7.819-11.956,17.605C189.316,139.484,192.864,146.176,197.656,148.413z
	M287.651,289.24c0,0,4.927-15.706,1.967-36.254
	c-2.959-20.565-32.318-85.135-35.732-88.094c-3.414-2.943-26.467,14.191-36.724,17.151c-10.241,2.892-24.954-14.713-24.954-14.713
	c2.421,7.348-2.892,23.978-9.787,31.78c-6.827,7.819-11.232,31.344-18.059,42.105c-6.911,10.778-11.3,32.319-5.919,45.064
	c5.381,12.746,35.279,26.938,36.725,37.179c1.446,10.308-8.811,11.821-8.811,11.821l13.2,15.117c0,0,11.77,2.488,35.279-0.925
	c23.507-3.48,38.692-24.499,38.692-24.499s0-24.971,1.446-31.865C276.418,286.28,287.651,289.24,287.651,289.24z
	M340.198,327.864c-5.717-3.027-8.744-11.754-8.34-17.875
	c0.386-6.037-3.43-7.936-3.43-7.936s-2.69,5.65-6.491,9.45c-3.817,3.817-16.36,9.131-25.088,5.314
	c-8.744-3.8-7.231-18.244-7.231-18.244s-3.027-0.723-4.927,0.774c-1.9,1.513-0.403,11.77,0,19.388
	c0.387,7.617-1.9,20.952-4.607,33.109c-2.623,12.208,2.707,20.548,8.81,22.448c6.037,1.917,15.958-4.59,23.508-12.544
	c7.617-8.004,33.109-18.261,37.716-22.465C354.642,335.078,345.915,330.874,340.198,327.864z"/>
</svg>
